<svg version="1.0" xmlns="http://www.w3.org/2000/svg"
 width="938.000000pt" height="684.000000pt" viewBox="0 0 938.000000 684.000000"
 preserveAspectRatio="xMidYMid meet">

<g transform="translate(0.000000,684.000000) scale(0.100000,-0.100000)"
fill="#000000" stroke="none">
<path d="M3230 4520 l0 -1720 1435 0 1435 0 0 1720 0 1720 -1435 0 -1435 0 0
-1720z m1577 1425 c154 -13 362 -89 503 -185 195 -132 361 -348 439 -572 62
-178 61 -159 61 -1179 l0 -929 -1145 0 -1145 0 0 919 c0 763 2 933 15 1002 68
392 335 723 698 869 146 58 342 94 462 84 22 -2 72 -6 112 -9z"/>
<path d="M4534 5365 c-165 -36 -325 -169 -393 -328 -48 -112 -51 -157 -51
-787 l0 -590 575 0 575 0 0 608 c0 508 -3 618 -15 671 -72 305 -379 494 -691
426z"/>
<path d="M3980 3485 l0 -55 690 0 690 0 0 55 0 55 -690 0 -690 0 0 -55z"/>
<path d="M3750 3255 l0 -55 915 0 915 0 0 55 0 55 -915 0 -915 0 0 -55z"/>
<path d="M3295 1940 c-153 -21 -285 -111 -347 -237 -27 -55 -33 -79 -36 -156
-7 -150 24 -245 107 -320 79 -71 135 -91 378 -131 156 -26 189 -41 218 -102
23 -48 17 -130 -13 -171 -80 -113 -401 -106 -540 12 l-34 28 -89 -89 -90 -89
47 -43 c60 -55 144 -98 243 -124 90 -23 324 -29 405 -9 89 21 192 76 246 130
74 74 103 144 108 260 7 151 -22 245 -99 322 -66 66 -141 95 -336 128 -237 40
-283 69 -283 178 0 65 39 126 98 155 90 43 293 18 378 -47 l36 -28 87 87 86
87 -40 35 c-48 43 -141 89 -216 108 -73 18 -237 27 -314 16z"/>
<path d="M4475 1940 c-153 -21 -285 -111 -347 -237 -27 -55 -33 -79 -36 -156
-7 -150 24 -245 107 -320 79 -72 135 -91 380 -131 155 -26 181 -37 213 -96 26
-47 21 -134 -10 -177 -80 -113 -401 -106 -540 12 l-34 28 -89 -89 -90 -89 47
-43 c60 -55 144 -98 243 -124 102 -27 327 -30 418 -5 145 38 260 125 311 235
25 53 27 67 27 187 0 114 -3 136 -23 179 -65 142 -152 192 -409 235 -237 40
-283 69 -283 178 0 65 39 126 98 155 90 43 293 18 378 -47 l36 -28 87 87 86
87 -40 35 c-48 43 -141 89 -216 108 -73 18 -237 27 -314 16z"/>
<path d="M6991 1940 c-177 -25 -354 -174 -395 -335 -27 -103 -40 -364 -27
-548 17 -250 42 -318 156 -426 202 -191 571 -182 764 18 111 115 141 217 141
482 l0 169 -270 0 -270 0 0 -115 0 -114 133 -3 132 -3 -2 -67 c-4 -110 -47
-186 -130 -229 -39 -20 -63 -24 -129 -24 -72 0 -86 3 -130 30 -36 23 -56 45
-77 86 -25 50 -30 73 -40 204 -15 211 1 436 38 511 52 106 170 148 302 109 61
-18 121 -78 148 -148 l18 -47 138 0 c81 0 139 4 139 9 0 33 -55 175 -86 220
-76 112 -155 171 -274 205 -71 20 -198 27 -279 16z"/>
<path d="M530 1220 l0 -720 140 0 140 0 0 270 0 270 133 0 c191 0 286 13 368
51 174 80 274 277 241 471 -36 207 -182 344 -394 368 -45 6 -206 10 -355 10
l-273 0 0 -720z m645 444 c22 -11 54 -40 70 -63 26 -37 30 -51 30 -110 0 -57
-4 -74 -28 -109 -47 -72 -86 -85 -274 -90 l-163 -5 0 203 0 202 163 -4 c141
-3 167 -6 202 -24z"/>
<path d="M2051 1918 c-60 -161 -511 -1407 -511 -1412 0 -3 65 -6 144 -6 l144
0 43 127 44 128 255 0 255 0 44 -128 43 -127 145 0 c112 0 144 3 140 13 -2 6
-121 330 -263 720 l-258 707 -108 0 c-103 0 -109 -1 -117 -22z m210 -655 c45
-137 84 -254 87 -260 3 -10 -35 -13 -172 -13 -123 0 -176 3 -176 11 0 13 171
509 176 509 1 0 39 -111 85 -247z"/>
<path d="M5457 1233 c-141 -390 -257 -714 -257 -721 0 -10 33 -12 142 -10
l141 3 42 125 42 125 255 3 256 2 43 -127 44 -128 143 -3 c78 -1 142 1 142 6
0 5 -117 328 -259 718 l-259 709 -109 3 -110 3 -256 -708z m461 19 c45 -136
82 -251 82 -255 0 -4 -79 -7 -176 -7 -137 0 -175 3 -172 13 3 6 42 121 88 255
46 133 86 242 89 242 4 0 43 -111 89 -248z"/>
<path d="M7920 1220 l0 -720 470 0 470 0 0 125 0 125 -330 0 -330 0 0 175 0
175 283 2 282 3 3 123 3 122 -286 0 -285 0 0 170 0 170 330 0 330 0 0 125 0
125 -470 0 -470 0 0 -720z"/>
</g>
</svg>
